M48
METRIC,LZ,000.000
;FILE_FORMAT=3:3
;TYPE=PLATED
;Layer: PTH_Through
;EasyEDA v6.5.54, 2026-09-19 15:12:34
;395764a54cf14ad2affa7039b8e0f9d5,09ffd788a2ef4615a9a97c9ea84c6738,10
;Gerber Generator version 0.2
;Holesize 1 = 0.901 mm
T01C0.901
;Holesize 2 = 0.915 mm
T02C0.915
;Holesize 3 = 1.000 mm
T03C1.000
;Holesize 4 = 1.051 mm
T04C1.051
;Holesize 5 = 1.101 mm
T05C1.101
%
G05
G90
T01
X074676Y020066
X077216Y020066
T02
X027305Y007493
X029845Y007493
X032385Y007493
X034925Y007493
X037465Y007493
X040005Y007493
T03
X081788Y064262
X084328Y064262
X086868Y064262
X089408Y064262
X081788Y054102
X084328Y054102
X086868Y054102
X089408Y054102
X031750Y062738
X034290Y062738
X036830Y062738
X039370Y062738
X080899Y000762
X083439Y000762
X085979Y000762
X088519Y000762
X088011Y047244
X088011Y044704
X088011Y042164
X088011Y039624
X089535Y021463
X089535Y018923
X089535Y016383
X089535Y013843
X029464Y025019
X029464Y022479
X029464Y019939
X029464Y017399
X029337Y045212
X029337Y042672
X029337Y040132
X029337Y037592
X077686Y031369
X091986Y031369
X070163Y006588G85X070163Y006588
X070163Y009128G85X070163Y009128
X070163Y011668G85X070163Y011668
X070163Y014208G85X070163Y014208
X070163Y016748G85X070163Y016748
X070163Y019288G85X070163Y019288
X070163Y021828G85X070163Y021828
X070163Y024368G85X070163Y024368
X070163Y026908G85X070163Y026908
X070163Y029448G85X070163Y029448
X070163Y031988G85X070163Y031988
X070163Y034528G85X070163Y034528
X070163Y037068G85X070163Y037068
X070163Y039608G85X070163Y039608
X070163Y042148G85X070163Y042148
X045393Y042148G85X045393Y042148
X045393Y039608G85X045393Y039608
X045393Y037068G85X045393Y037068
X045393Y034528G85X045393Y034528
X045393Y031988G85X045393Y031988
X045393Y029448G85X045393Y029448
X045393Y026908G85X045393Y026908
X045393Y024368G85X045393Y024368
X045393Y021828G85X045393Y021828
X045393Y019288G85X045393Y019288
X045393Y016748G85X045393Y016748
X045393Y014208G85X045393Y014208
X045393Y011668G85X045393Y011668
X045393Y009128G85X045393Y009128
X045393Y006588G85X045393Y006588
T04
X049152Y056642G85X049146Y056642
X051692Y056642G85X051686Y056642
X054232Y056642G85X054226Y056642
X056772Y056642G85X056766Y056642
X059312Y056642G85X059306Y056642
X061852Y056642G85X061846Y056642
X064392Y056642G85X064386Y056642
X066932Y056642G85X066926Y056642
T05
X039624Y003683
X039624Y001143
X076073Y001905
X076073Y-000635
M30
