G04 Layer: BottomLayer*
G04 EasyEDA v6.5.54, 2026-09-19 15:12:34*
G04 395764a54cf14ad2affa7039b8e0f9d5,09ffd788a2ef4615a9a97c9ea84c6738,10*
G04 Gerber Generator version 0.2*
G04 Scale: 100 percent, Rotated: No, Reflected: No *
G04 Dimensions in millimeters *
G04 leading zeros omitted , absolute positions ,4 integer and 5 decimal *
%FSLAX45Y45*%
%MOMM*%

%ADD10C,0.2540*%
%ADD11R,1.6000X1.6000*%
%ADD12C,1.6000*%
%ADD13R,1.7780X1.7780*%
%ADD14C,1.7780*%
%ADD15R,1.8000X1.8000*%
%ADD16R,0.0147X1.8000*%
%ADD17C,1.8000*%
%ADD18R,1.5240X1.5240*%
%ADD19C,1.5240*%
%ADD20C,1.9304*%

%LPD*%
D10*
X8388022Y120319D02*
G01*
X9187106Y919403D01*
X9187106Y3125393D01*
X9192872Y3131159D01*
X9192872Y3136900D01*
X9192872Y3136900D02*
G01*
X9198612Y3136900D01*
X8388022Y120319D02*
G01*
X8343902Y76200D01*
X8432802Y5515711D02*
G01*
X8432802Y6426200D01*
X8432802Y5410200D02*
G01*
X8432802Y5515711D01*
X8432802Y5515711D02*
G01*
X8432802Y5451398D01*
X8282002Y5300598D01*
X7406972Y5300598D01*
X6873648Y5833922D01*
X5338625Y5833922D01*
X5168902Y5664200D01*
X3429002Y6273800D02*
G01*
X3315032Y6159830D01*
X3081835Y6159830D01*
X3066900Y6174765D01*
X3066900Y6378422D01*
X3115337Y6426860D01*
X4406242Y6426860D01*
X5168902Y5664200D01*
X8388022Y120319D02*
G01*
X8546061Y-37744D01*
X8894574Y-37744D01*
X9409254Y476935D01*
X9409254Y6126657D01*
X8940015Y6595897D01*
X8602499Y6595897D01*
X8432802Y6426200D01*
X6857850Y500329D02*
G01*
X6471846Y114325D01*
X3962402Y114325D01*
X7016295Y658774D02*
G01*
X6857850Y500329D01*
X6857850Y500329D02*
G01*
X7544666Y-186486D01*
X7719291Y-186486D01*
X7981977Y76200D01*
X8089902Y76200D02*
G01*
X7981977Y76200D01*
X3060346Y6115430D02*
G01*
X3436571Y6115430D01*
X3537612Y6216472D01*
X3537612Y6383426D01*
X8232777Y6426200D02*
G01*
X8190969Y6468008D01*
X3098345Y6468008D01*
X3013687Y6383350D01*
X3013687Y6162090D01*
X3060346Y6115430D01*
X3060346Y6115430D02*
G01*
X2622755Y5677839D01*
X2622755Y645668D01*
X3154098Y114325D01*
X3962402Y114325D01*
X3962402Y114325D02*
G01*
X3962402Y114300D01*
X8205802Y6426200D02*
G01*
X8178802Y6399199D01*
X8178802Y5410200D01*
X8205802Y6426200D02*
G01*
X8232777Y6426200D01*
X8178802Y6426200D02*
G01*
X8205802Y6426200D01*
X3537612Y6383426D02*
G01*
X3365578Y6383426D01*
X3282927Y6300774D01*
X3282927Y6273800D01*
X4798087Y5664200D02*
G01*
X4078861Y6383426D01*
X3537612Y6383426D01*
X4914902Y5664200D02*
G01*
X4859581Y5664200D01*
X4856507Y5664200D02*
G01*
X4798087Y5664200D01*
X4856507Y5664200D02*
G01*
X4859581Y5664200D01*
X3175002Y6273800D02*
G01*
X3282927Y6273800D01*
X8953502Y1892300D02*
G01*
X8089902Y1028700D01*
X8089902Y76200D01*
X7768592Y3136900D02*
G01*
X7842608Y3062884D01*
X7842608Y1966442D01*
X7772935Y1896770D01*
X7577432Y1896770D01*
X7467602Y2006600D01*
X7016295Y912774D02*
G01*
X6471820Y368300D01*
X3962402Y368300D01*
X3067230Y2563774D02*
G01*
X3067230Y2114727D01*
X2946402Y1993900D01*
X2933702Y4013200D02*
G01*
X3067230Y3879672D01*
X3067230Y2563774D01*
X7016295Y912774D02*
G01*
X7798462Y912774D01*
X8901127Y2015439D01*
X9061960Y2015439D01*
X9061960Y2015439D02*
G01*
X9061960Y1746757D01*
X8953502Y1638300D01*
X8801102Y4216400D02*
G01*
X9061960Y3955542D01*
X9061960Y2015439D01*
X8953502Y2146300D02*
G01*
X8845577Y2146300D01*
X7016295Y1166774D02*
G01*
X7866052Y1166774D01*
X8845577Y2146300D01*
X8801102Y4724400D02*
G01*
X8801102Y4616475D01*
X7016295Y1420774D02*
G01*
X7362624Y1767103D01*
X7362624Y3204971D01*
X8774127Y4616475D01*
X8801102Y4616475D01*
X2946402Y2501900D02*
G01*
X2946402Y2393975D01*
X7016295Y1674774D02*
G01*
X7187237Y1845716D01*
X7187237Y3474720D01*
X7082182Y3579774D01*
X5803699Y3579774D01*
X4787699Y2563774D01*
X3777973Y2563774D01*
X3094992Y1880793D01*
X2900784Y1880793D01*
X2825574Y1956003D01*
X2825574Y2300122D01*
X2919427Y2393975D01*
X2946402Y2393975D01*
X7016295Y2182774D02*
G01*
X5367276Y533755D01*
X4216046Y533755D01*
X4000502Y749300D01*
X7016295Y2436774D02*
G01*
X5362907Y783386D01*
X4126130Y783386D01*
X4051429Y858088D01*
X3855290Y858088D01*
X3746502Y749300D01*
X7016295Y2690774D02*
G01*
X5367708Y1042187D01*
X3785389Y1042187D01*
X3492502Y749300D01*
X7016295Y2944774D02*
G01*
X5365295Y1293774D01*
X3782976Y1293774D01*
X3238502Y749300D01*
X7016295Y3198774D02*
G01*
X5875708Y2058187D01*
X4293389Y2058187D01*
X2984502Y749300D01*
X2730502Y749300D02*
G01*
X2834617Y749300D01*
X7016295Y3452774D02*
G01*
X5873295Y2309774D01*
X4395091Y2309774D01*
X2834617Y749300D01*
X6304587Y4807585D02*
G01*
X5447972Y5664200D01*
X5422902Y5664200D01*
X4539287Y3960774D02*
G01*
X4409899Y3831386D01*
X4409899Y3132556D01*
X4470631Y3071825D01*
X4593897Y3071825D01*
X6304587Y4782515D01*
X6304587Y4807585D01*
X8686802Y5212130D02*
G01*
X6709133Y5212130D01*
X6304587Y4807585D01*
X8597902Y76200D02*
G01*
X9312252Y790549D01*
X9312252Y4586681D01*
X8686802Y5212130D01*
X8686802Y5212130D02*
G01*
X8686802Y5410200D01*
X4539287Y3960774D02*
G01*
X3683002Y4817059D01*
X3683002Y6273800D01*
X8686802Y6426200D02*
G01*
X8686802Y5410200D01*
X5676902Y5664200D02*
G01*
X6088179Y5252923D01*
X8432269Y5252923D01*
X8559802Y5380456D01*
X8559802Y6453123D01*
X8649032Y6542354D01*
X8824648Y6542354D01*
X8940802Y6426200D01*
X4667252Y5543550D02*
G01*
X5213657Y5543550D01*
X5295902Y5625795D01*
X5295902Y5708091D01*
X5375048Y5787237D01*
X5553864Y5787237D01*
X5676902Y5664200D01*
X4667252Y5543550D02*
G01*
X4667252Y3326739D01*
X4539287Y3198774D01*
X3937002Y6273800D02*
G01*
X4667252Y5543550D01*
X8940802Y6426200D02*
G01*
X8940802Y5410200D01*
X8940802Y5410200D02*
G01*
X9360385Y4990617D01*
X9360385Y584682D01*
X8851902Y76200D01*
X7607302Y190500D02*
G01*
X7607302Y308406D01*
X7607302Y308406D02*
G01*
X7130036Y785672D01*
X6946877Y785672D01*
X6402631Y241427D01*
X3579599Y241427D01*
X3127301Y693724D01*
X3127301Y796112D01*
X4259963Y1928774D01*
X4539287Y1928774D01*
X4539287Y1166774D02*
G01*
X5295978Y1166774D01*
X6946978Y2817774D01*
X7068187Y2817774D01*
X7144260Y2741701D01*
X7144260Y2119401D01*
X7080633Y2055774D01*
X6946978Y2055774D01*
X6879592Y1988388D01*
X6879592Y1378280D01*
X6964047Y1293825D01*
X7236665Y1293825D01*
X7893331Y1950491D01*
X7893331Y3168777D01*
X7804533Y3257575D01*
X7735953Y3257575D01*
X7646748Y3168370D01*
X7646748Y2081453D01*
X7721602Y2006600D01*
D11*
G01*
X8178800Y6426200D03*
D12*
G01*
X8432800Y6426200D03*
G01*
X8686800Y6426200D03*
G01*
X8940800Y6426200D03*
D11*
G01*
X8178800Y5410200D03*
D12*
G01*
X8432800Y5410200D03*
G01*
X8686800Y5410200D03*
G01*
X8940800Y5410200D03*
D11*
G01*
X3175000Y6273800D03*
D12*
G01*
X3429000Y6273800D03*
G01*
X3683000Y6273800D03*
G01*
X3937000Y6273800D03*
D11*
G01*
X8089900Y76200D03*
D12*
G01*
X8343900Y76200D03*
G01*
X8597900Y76200D03*
G01*
X8851900Y76200D03*
D11*
G01*
X8801100Y4724400D03*
D12*
G01*
X8801100Y4470400D03*
G01*
X8801100Y4216400D03*
G01*
X8801100Y3962400D03*
D11*
G01*
X8953500Y2146300D03*
D12*
G01*
X8953500Y1892300D03*
G01*
X8953500Y1638300D03*
G01*
X8953500Y1384300D03*
D11*
G01*
X2946400Y2501900D03*
D12*
G01*
X2946400Y2247900D03*
G01*
X2946400Y1993900D03*
G01*
X2946400Y1739900D03*
D11*
G01*
X2933700Y4521200D03*
D12*
G01*
X2933700Y4267200D03*
G01*
X2933700Y4013200D03*
G01*
X2933700Y3759200D03*
D13*
G01*
X4914900Y5664200D03*
D14*
G01*
X5168900Y5664200D03*
G01*
X5422900Y5664200D03*
G01*
X5676900Y5664200D03*
G01*
X5930900Y5664200D03*
G01*
X6184900Y5664200D03*
G01*
X6438900Y5664200D03*
G01*
X6692900Y5664200D03*
D15*
G01*
X3962400Y368300D03*
D17*
G01*
X3962400Y114300D03*
D15*
G01*
X7607300Y190500D03*
D17*
G01*
X7607300Y-63500D03*
D18*
G01*
X2730500Y749300D03*
D19*
G01*
X2984500Y749300D03*
G01*
X3238500Y749300D03*
G01*
X3492500Y749300D03*
G01*
X3746500Y749300D03*
G01*
X4000500Y749300D03*
D12*
G01*
X7768590Y3136900D03*
G01*
X9198609Y3136900D03*
D19*
G01*
X7467600Y2006600D03*
G01*
X7721600Y2006600D03*
D20*
G01*
X7016292Y658774D03*
G01*
X7016292Y912774D03*
G01*
X7016292Y1166774D03*
G01*
X7016292Y1420774D03*
G01*
X7016292Y1674774D03*
G01*
X7016292Y1928774D03*
G01*
X7016292Y2182774D03*
G01*
X7016292Y2436774D03*
G01*
X7016292Y2690774D03*
G01*
X7016292Y2944774D03*
G01*
X7016292Y3198774D03*
G01*
X7016292Y3452774D03*
G01*
X7016292Y3706774D03*
G01*
X7016292Y3960774D03*
G01*
X7016292Y4214774D03*
G01*
X4539284Y4214774D03*
G01*
X4539284Y3960774D03*
G01*
X4539284Y3706774D03*
G01*
X4539284Y3452774D03*
G01*
X4539284Y3198774D03*
G01*
X4539284Y2944774D03*
G01*
X4539284Y2690774D03*
G01*
X4539284Y2436774D03*
G01*
X4539284Y2182774D03*
G01*
X4539284Y1928774D03*
G01*
X4539284Y1674774D03*
G01*
X4539284Y1420774D03*
G01*
X4539284Y1166774D03*
G01*
X4539284Y912774D03*
G01*
X4539284Y658774D03*
M02*
