G04 Layer: TopLayer*
G04 EasyEDA v6.5.54, 2026-09-19 15:12:34*
G04 395764a54cf14ad2affa7039b8e0f9d5,09ffd788a2ef4615a9a97c9ea84c6738,10*
G04 Gerber Generator version 0.2*
G04 Scale: 100 percent, Rotated: No, Reflected: No *
G04 Dimensions in millimeters *
G04 leading zeros omitted , absolute positions ,4 integer and 5 decimal *
%FSLAX45Y45*%
%MOMM*%

%ADD10R,1.6000X1.6000*%
%ADD11C,1.6000*%
%ADD12R,1.7780X1.7780*%
%ADD13C,1.7780*%
%ADD14R,1.8000X1.8000*%
%ADD15C,1.8000*%
%ADD16R,1.5240X1.5240*%
%ADD17R,0.0115X1.5240*%
%ADD18C,1.5240*%
%ADD19C,1.9304*%

%LPD*%
G36*
X774700Y9398000D02*
G01*
X11137900Y9398000D01*
X11137900Y-939800D01*
X774700Y-939800D01*
G37*
D10*
G01*
X8178800Y6426200D03*
D11*
G01*
X8432800Y6426200D03*
G01*
X8686800Y6426200D03*
G01*
X8940800Y6426200D03*
D10*
G01*
X8178800Y5410200D03*
D11*
G01*
X8432800Y5410200D03*
G01*
X8686800Y5410200D03*
G01*
X8940800Y5410200D03*
D10*
G01*
X3175000Y6273800D03*
D11*
G01*
X3429000Y6273800D03*
G01*
X3683000Y6273800D03*
G01*
X3937000Y6273800D03*
D10*
G01*
X8089900Y76200D03*
D11*
G01*
X8343900Y76200D03*
G01*
X8597900Y76200D03*
G01*
X8851900Y76200D03*
D10*
G01*
X8801100Y4724400D03*
D11*
G01*
X8801100Y4470400D03*
G01*
X8801100Y4216400D03*
G01*
X8801100Y3962400D03*
D10*
G01*
X8953500Y2146300D03*
D11*
G01*
X8953500Y1892300D03*
G01*
X8953500Y1638300D03*
G01*
X8953500Y1384300D03*
D10*
G01*
X2946400Y2501900D03*
D11*
G01*
X2946400Y2247900D03*
G01*
X2946400Y1993900D03*
G01*
X2946400Y1739900D03*
D10*
G01*
X2933700Y4521200D03*
D11*
G01*
X2933700Y4267200D03*
G01*
X2933700Y4013200D03*
G01*
X2933700Y3759200D03*
D12*
G01*
X4914900Y5664200D03*
D13*
G01*
X5168900Y5664200D03*
G01*
X5422900Y5664200D03*
G01*
X5676900Y5664200D03*
G01*
X5930900Y5664200D03*
G01*
X6184900Y5664200D03*
G01*
X6438900Y5664200D03*
G01*
X6692900Y5664200D03*
D14*
G01*
X3962400Y368300D03*
D15*
G01*
X3962400Y114300D03*
D14*
G01*
X7607300Y190500D03*
D15*
G01*
X7607300Y-63500D03*
D16*
G01*
X2730500Y749300D03*
D18*
G01*
X2984500Y749300D03*
G01*
X3238500Y749300D03*
G01*
X3492500Y749300D03*
G01*
X3746500Y749300D03*
G01*
X4000500Y749300D03*
D11*
G01*
X7768590Y3136900D03*
G01*
X9198609Y3136900D03*
D18*
G01*
X7467600Y2006600D03*
G01*
X7721600Y2006600D03*
D19*
G01*
X7016292Y658774D03*
G01*
X7016292Y912774D03*
G01*
X7016292Y1166774D03*
G01*
X7016292Y1420774D03*
G01*
X7016292Y1674774D03*
G01*
X7016292Y1928774D03*
G01*
X7016292Y2182774D03*
G01*
X7016292Y2436774D03*
G01*
X7016292Y2690774D03*
G01*
X7016292Y2944774D03*
G01*
X7016292Y3198774D03*
G01*
X7016292Y3452774D03*
G01*
X7016292Y3706774D03*
G01*
X7016292Y3960774D03*
G01*
X7016292Y4214774D03*
G01*
X4539284Y4214774D03*
G01*
X4539284Y3960774D03*
G01*
X4539284Y3706774D03*
G01*
X4539284Y3452774D03*
G01*
X4539284Y3198774D03*
G01*
X4539284Y2944774D03*
G01*
X4539284Y2690774D03*
G01*
X4539284Y2436774D03*
G01*
X4539284Y2182774D03*
G01*
X4539284Y1928774D03*
G01*
X4539284Y1674774D03*
G01*
X4539284Y1420774D03*
G01*
X4539284Y1166774D03*
G01*
X4539284Y912774D03*
G01*
X4539284Y658774D03*
M02*
