G04 Layer: TopSilkscreenLayer*
G04 EasyEDA v6.5.54, 2026-09-19 15:12:34*
G04 395764a54cf14ad2affa7039b8e0f9d5,09ffd788a2ef4615a9a97c9ea84c6738,10*
G04 Gerber Generator version 0.2*
G04 Scale: 100 percent, Rotated: No, Reflected: No *
G04 Dimensions in millimeters *
G04 leading zeros omitted , absolute positions ,4 integer and 5 decimal *
%FSLAX45Y45*%
%MOMM*%

%ADD10C,0.1524*%
%ADD11C,0.1016*%
%ADD12C,0.0813*%
%ADD13C,0.1544*%
%ADD14C,0.2540*%
%ADD15C,0.0103*%

%LPD*%
D10*
X8559800Y6820915D02*
G01*
X8559800Y6711950D01*
X8594090Y6820915D02*
G01*
X8594090Y6711950D01*
X8706358Y6795008D02*
G01*
X8701024Y6805421D01*
X8690609Y6815836D01*
X8680450Y6820915D01*
X8659622Y6820915D01*
X8649208Y6815836D01*
X8638793Y6805421D01*
X8633459Y6795008D01*
X8628379Y6779260D01*
X8628379Y6753352D01*
X8633459Y6737858D01*
X8638793Y6727444D01*
X8649208Y6717029D01*
X8659622Y6711950D01*
X8680450Y6711950D01*
X8690609Y6717029D01*
X8701024Y6727444D01*
X8706358Y6737858D01*
X8740647Y6675373D02*
G01*
X8834120Y6675373D01*
X8868409Y6820915D02*
G01*
X8868409Y6711950D01*
X8868409Y6820915D02*
G01*
X8915145Y6820915D01*
X8930640Y6815836D01*
X8935974Y6810502D01*
X8941054Y6800087D01*
X8941054Y6789673D01*
X8935974Y6779260D01*
X8930640Y6774179D01*
X8915145Y6769100D01*
X8868409Y6769100D01*
X8904731Y6769100D02*
G01*
X8941054Y6711950D01*
X9017000Y6820915D02*
G01*
X8975343Y6711950D01*
X9017000Y6820915D02*
G01*
X9058656Y6711950D01*
X8991091Y6748271D02*
G01*
X9042908Y6748271D01*
X9092945Y6820915D02*
G01*
X9092945Y6711950D01*
X9127236Y6820915D02*
G01*
X9127236Y6711950D01*
X9127236Y6711950D02*
G01*
X9189465Y6711950D01*
X9223756Y6675373D02*
G01*
X9317227Y6675373D01*
X9351518Y6800087D02*
G01*
X9361931Y6805421D01*
X9377679Y6820915D01*
X9377679Y6711950D01*
X8559800Y5804915D02*
G01*
X8559800Y5695950D01*
X8594090Y5804915D02*
G01*
X8594090Y5695950D01*
X8706358Y5779007D02*
G01*
X8701024Y5789421D01*
X8690609Y5799836D01*
X8680450Y5804915D01*
X8659622Y5804915D01*
X8649208Y5799836D01*
X8638793Y5789421D01*
X8633459Y5779007D01*
X8628379Y5763260D01*
X8628379Y5737352D01*
X8633459Y5721857D01*
X8638793Y5711444D01*
X8649208Y5701029D01*
X8659622Y5695950D01*
X8680450Y5695950D01*
X8690609Y5701029D01*
X8701024Y5711444D01*
X8706358Y5721857D01*
X8740647Y5659373D02*
G01*
X8834120Y5659373D01*
X8868409Y5804915D02*
G01*
X8868409Y5695950D01*
X8868409Y5804915D02*
G01*
X8915145Y5804915D01*
X8930640Y5799836D01*
X8935974Y5794502D01*
X8941054Y5784087D01*
X8941054Y5773673D01*
X8935974Y5763260D01*
X8930640Y5758179D01*
X8915145Y5753100D01*
X8868409Y5753100D01*
X8904731Y5753100D02*
G01*
X8941054Y5695950D01*
X9017000Y5804915D02*
G01*
X8975343Y5695950D01*
X9017000Y5804915D02*
G01*
X9058656Y5695950D01*
X8991091Y5732271D02*
G01*
X9042908Y5732271D01*
X9092945Y5804915D02*
G01*
X9092945Y5695950D01*
X9127236Y5804915D02*
G01*
X9127236Y5695950D01*
X9127236Y5695950D02*
G01*
X9189465Y5695950D01*
X9223756Y5659373D02*
G01*
X9317227Y5659373D01*
X9356852Y5779007D02*
G01*
X9356852Y5784087D01*
X9361931Y5794502D01*
X9367265Y5799836D01*
X9377679Y5804915D01*
X9398254Y5804915D01*
X9408668Y5799836D01*
X9414002Y5794502D01*
X9419081Y5784087D01*
X9419081Y5773673D01*
X9414002Y5763260D01*
X9403588Y5747765D01*
X9351518Y5695950D01*
X9424415Y5695950D01*
X3556000Y6668515D02*
G01*
X3556000Y6559550D01*
X3590290Y6668515D02*
G01*
X3590290Y6559550D01*
X3702558Y6642608D02*
G01*
X3697224Y6653021D01*
X3686809Y6663436D01*
X3676650Y6668515D01*
X3655822Y6668515D01*
X3645408Y6663436D01*
X3634993Y6653021D01*
X3629659Y6642608D01*
X3624579Y6626860D01*
X3624579Y6600952D01*
X3629659Y6585458D01*
X3634993Y6575044D01*
X3645408Y6564629D01*
X3655822Y6559550D01*
X3676650Y6559550D01*
X3686809Y6564629D01*
X3697224Y6575044D01*
X3702558Y6585458D01*
X3736847Y6522973D02*
G01*
X3830320Y6522973D01*
X3864609Y6668515D02*
G01*
X3864609Y6559550D01*
X3864609Y6668515D02*
G01*
X3911345Y6668515D01*
X3926840Y6663436D01*
X3932174Y6658102D01*
X3937254Y6647687D01*
X3937254Y6637273D01*
X3932174Y6626860D01*
X3926840Y6621779D01*
X3911345Y6616700D01*
X3864609Y6616700D01*
X3900931Y6616700D02*
G01*
X3937254Y6559550D01*
X4013200Y6668515D02*
G01*
X3971543Y6559550D01*
X4013200Y6668515D02*
G01*
X4054856Y6559550D01*
X3987291Y6595871D02*
G01*
X4039108Y6595871D01*
X4089145Y6668515D02*
G01*
X4089145Y6559550D01*
X4123436Y6668515D02*
G01*
X4123436Y6559550D01*
X4123436Y6559550D02*
G01*
X4185665Y6559550D01*
X4219956Y6522973D02*
G01*
X4313427Y6522973D01*
X4358131Y6668515D02*
G01*
X4415281Y6668515D01*
X4384040Y6626860D01*
X4399788Y6626860D01*
X4410202Y6621779D01*
X4415281Y6616700D01*
X4420615Y6600952D01*
X4420615Y6590537D01*
X4415281Y6575044D01*
X4404868Y6564629D01*
X4389374Y6559550D01*
X4373879Y6559550D01*
X4358131Y6564629D01*
X4353052Y6569710D01*
X4347718Y6580123D01*
X8470900Y470915D02*
G01*
X8470900Y361950D01*
X8505190Y470915D02*
G01*
X8505190Y361950D01*
X8617458Y445007D02*
G01*
X8612124Y455421D01*
X8601709Y465836D01*
X8591550Y470915D01*
X8570722Y470915D01*
X8560308Y465836D01*
X8549893Y455421D01*
X8544559Y445007D01*
X8539479Y429260D01*
X8539479Y403352D01*
X8544559Y387857D01*
X8549893Y377444D01*
X8560308Y367029D01*
X8570722Y361950D01*
X8591550Y361950D01*
X8601709Y367029D01*
X8612124Y377444D01*
X8617458Y387857D01*
X8651747Y325373D02*
G01*
X8745220Y325373D01*
X8779509Y470915D02*
G01*
X8779509Y361950D01*
X8779509Y470915D02*
G01*
X8826245Y470915D01*
X8841740Y465836D01*
X8847074Y460502D01*
X8852154Y450087D01*
X8852154Y439673D01*
X8847074Y429260D01*
X8841740Y424179D01*
X8826245Y419100D01*
X8779509Y419100D01*
X8815831Y419100D02*
G01*
X8852154Y361950D01*
X8928100Y470915D02*
G01*
X8886443Y361950D01*
X8928100Y470915D02*
G01*
X8969756Y361950D01*
X8902191Y398271D02*
G01*
X8954008Y398271D01*
X9004045Y470915D02*
G01*
X9004045Y361950D01*
X9038336Y470915D02*
G01*
X9038336Y361950D01*
X9038336Y361950D02*
G01*
X9100565Y361950D01*
X9134856Y325373D02*
G01*
X9228327Y325373D01*
X9314688Y470915D02*
G01*
X9262618Y398271D01*
X9340595Y398271D01*
X9314688Y470915D02*
G01*
X9314688Y361950D01*
X9195815Y4343400D02*
G01*
X9086850Y4343400D01*
X9195815Y4343400D02*
G01*
X9086850Y4301744D01*
X9195815Y4260342D02*
G01*
X9086850Y4301744D01*
X9195815Y4260342D02*
G01*
X9086850Y4260342D01*
X9195815Y4194810D02*
G01*
X9190736Y4205223D01*
X9180322Y4215637D01*
X9169908Y4220718D01*
X9154159Y4226052D01*
X9128252Y4226052D01*
X9112758Y4220718D01*
X9102343Y4215637D01*
X9091929Y4205223D01*
X9086850Y4194810D01*
X9086850Y4173981D01*
X9091929Y4163568D01*
X9102343Y4153154D01*
X9112758Y4148073D01*
X9128252Y4142739D01*
X9154159Y4142739D01*
X9169908Y4148073D01*
X9180322Y4153154D01*
X9190736Y4163568D01*
X9195815Y4173981D01*
X9195815Y4194810D01*
X9195815Y4072128D02*
G01*
X9086850Y4072128D01*
X9195815Y4108450D02*
G01*
X9195815Y4035805D01*
X9195815Y3939286D02*
G01*
X9195815Y3991102D01*
X9149079Y3996436D01*
X9154159Y3991102D01*
X9159493Y3975607D01*
X9159493Y3959860D01*
X9154159Y3944365D01*
X9144000Y3933952D01*
X9128252Y3928871D01*
X9117838Y3928871D01*
X9102343Y3933952D01*
X9091929Y3944365D01*
X9086850Y3959860D01*
X9086850Y3975607D01*
X9091929Y3991102D01*
X9097009Y3996436D01*
X9107424Y4001515D01*
X9195815Y3894581D02*
G01*
X9086850Y3894581D01*
X9195815Y3894581D02*
G01*
X9195815Y3827018D01*
X9144000Y3894581D02*
G01*
X9144000Y3852926D01*
X9086850Y3894581D02*
G01*
X9086850Y3827018D01*
X9180322Y3719829D02*
G01*
X9190736Y3730244D01*
X9195815Y3745992D01*
X9195815Y3766820D01*
X9190736Y3782313D01*
X9180322Y3792728D01*
X9169908Y3792728D01*
X9159493Y3787394D01*
X9154159Y3782313D01*
X9149079Y3771900D01*
X9138665Y3740657D01*
X9133586Y3730244D01*
X9128252Y3725163D01*
X9117838Y3719829D01*
X9102343Y3719829D01*
X9091929Y3730244D01*
X9086850Y3745992D01*
X9086850Y3766820D01*
X9091929Y3782313D01*
X9102343Y3792728D01*
X9169908Y3607815D02*
G01*
X9180322Y3612895D01*
X9190736Y3623310D01*
X9195815Y3633723D01*
X9195815Y3654552D01*
X9190736Y3664965D01*
X9180322Y3675379D01*
X9169908Y3680460D01*
X9154159Y3685539D01*
X9128252Y3685539D01*
X9112758Y3680460D01*
X9102343Y3675379D01*
X9091929Y3664965D01*
X9086850Y3654552D01*
X9086850Y3633723D01*
X9091929Y3623310D01*
X9102343Y3612895D01*
X9112758Y3607815D01*
X9348215Y1765300D02*
G01*
X9239250Y1765300D01*
X9348215Y1765300D02*
G01*
X9239250Y1723644D01*
X9348215Y1682242D02*
G01*
X9239250Y1723644D01*
X9348215Y1682242D02*
G01*
X9239250Y1682242D01*
X9348215Y1616710D02*
G01*
X9343136Y1627123D01*
X9332722Y1637537D01*
X9322308Y1642618D01*
X9306559Y1647952D01*
X9280652Y1647952D01*
X9265158Y1642618D01*
X9254743Y1637537D01*
X9244329Y1627123D01*
X9239250Y1616710D01*
X9239250Y1595881D01*
X9244329Y1585468D01*
X9254743Y1575054D01*
X9265158Y1569973D01*
X9280652Y1564639D01*
X9306559Y1564639D01*
X9322308Y1569973D01*
X9332722Y1575054D01*
X9343136Y1585468D01*
X9348215Y1595881D01*
X9348215Y1616710D01*
X9348215Y1494028D02*
G01*
X9239250Y1494028D01*
X9348215Y1530350D02*
G01*
X9348215Y1457705D01*
X9332722Y1361186D02*
G01*
X9343136Y1366265D01*
X9348215Y1381760D01*
X9348215Y1392173D01*
X9343136Y1407921D01*
X9327388Y1418336D01*
X9301479Y1423415D01*
X9275572Y1423415D01*
X9254743Y1418336D01*
X9244329Y1407921D01*
X9239250Y1392173D01*
X9239250Y1387094D01*
X9244329Y1371600D01*
X9254743Y1361186D01*
X9270238Y1355852D01*
X9275572Y1355852D01*
X9291065Y1361186D01*
X9301479Y1371600D01*
X9306559Y1387094D01*
X9306559Y1392173D01*
X9301479Y1407921D01*
X9291065Y1418336D01*
X9275572Y1423415D01*
X9348215Y1321562D02*
G01*
X9239250Y1321562D01*
X9348215Y1321562D02*
G01*
X9348215Y1253997D01*
X9296400Y1321562D02*
G01*
X9296400Y1280160D01*
X9239250Y1321562D02*
G01*
X9239250Y1253997D01*
X9332722Y1147063D02*
G01*
X9343136Y1157478D01*
X9348215Y1172971D01*
X9348215Y1193800D01*
X9343136Y1209294D01*
X9332722Y1219707D01*
X9322308Y1219707D01*
X9311893Y1214628D01*
X9306559Y1209294D01*
X9301479Y1198879D01*
X9291065Y1167892D01*
X9285986Y1157478D01*
X9280652Y1152144D01*
X9270238Y1147063D01*
X9254743Y1147063D01*
X9244329Y1157478D01*
X9239250Y1172971D01*
X9239250Y1193800D01*
X9244329Y1209294D01*
X9254743Y1219707D01*
X9322308Y1034795D02*
G01*
X9332722Y1040129D01*
X9343136Y1050289D01*
X9348215Y1060704D01*
X9348215Y1081531D01*
X9343136Y1091945D01*
X9332722Y1102360D01*
X9322308Y1107439D01*
X9306559Y1112773D01*
X9280652Y1112773D01*
X9265158Y1107439D01*
X9254743Y1102360D01*
X9244329Y1091945D01*
X9239250Y1081531D01*
X9239250Y1060704D01*
X9244329Y1050289D01*
X9254743Y1040129D01*
X9265158Y1034795D01*
X3341115Y2120900D02*
G01*
X3232150Y2120900D01*
X3341115Y2120900D02*
G01*
X3232150Y2079244D01*
X3341115Y2037842D02*
G01*
X3232150Y2079244D01*
X3341115Y2037842D02*
G01*
X3232150Y2037842D01*
X3341115Y1972310D02*
G01*
X3336036Y1982723D01*
X3325622Y1993137D01*
X3315208Y1998218D01*
X3299459Y2003552D01*
X3273552Y2003552D01*
X3258058Y1998218D01*
X3247643Y1993137D01*
X3237229Y1982723D01*
X3232150Y1972310D01*
X3232150Y1951481D01*
X3237229Y1941068D01*
X3247643Y1930654D01*
X3258058Y1925573D01*
X3273552Y1920239D01*
X3299459Y1920239D01*
X3315208Y1925573D01*
X3325622Y1930654D01*
X3336036Y1941068D01*
X3341115Y1951481D01*
X3341115Y1972310D01*
X3341115Y1849628D02*
G01*
X3232150Y1849628D01*
X3341115Y1885950D02*
G01*
X3341115Y1813305D01*
X3341115Y1706371D02*
G01*
X3232150Y1758187D01*
X3341115Y1779015D02*
G01*
X3341115Y1706371D01*
X3341115Y1672081D02*
G01*
X3232150Y1672081D01*
X3341115Y1672081D02*
G01*
X3341115Y1604518D01*
X3289300Y1672081D02*
G01*
X3289300Y1630426D01*
X3232150Y1672081D02*
G01*
X3232150Y1604518D01*
X3325622Y1497329D02*
G01*
X3336036Y1507744D01*
X3341115Y1523492D01*
X3341115Y1544320D01*
X3336036Y1559813D01*
X3325622Y1570228D01*
X3315208Y1570228D01*
X3304793Y1564894D01*
X3299459Y1559813D01*
X3294379Y1549400D01*
X3283965Y1518157D01*
X3278886Y1507744D01*
X3273552Y1502663D01*
X3263138Y1497329D01*
X3247643Y1497329D01*
X3237229Y1507744D01*
X3232150Y1523492D01*
X3232150Y1544320D01*
X3237229Y1559813D01*
X3247643Y1570228D01*
X3315208Y1385315D02*
G01*
X3325622Y1390395D01*
X3336036Y1400810D01*
X3341115Y1411223D01*
X3341115Y1432052D01*
X3336036Y1442465D01*
X3325622Y1452879D01*
X3315208Y1457960D01*
X3299459Y1463039D01*
X3273552Y1463039D01*
X3258058Y1457960D01*
X3247643Y1452879D01*
X3237229Y1442465D01*
X3232150Y1432052D01*
X3232150Y1411223D01*
X3237229Y1400810D01*
X3247643Y1390395D01*
X3258058Y1385315D01*
X3328415Y4140200D02*
G01*
X3219450Y4140200D01*
X3328415Y4140200D02*
G01*
X3219450Y4098544D01*
X3328415Y4057142D02*
G01*
X3219450Y4098544D01*
X3328415Y4057142D02*
G01*
X3219450Y4057142D01*
X3328415Y3991610D02*
G01*
X3323336Y4002023D01*
X3312922Y4012437D01*
X3302508Y4017518D01*
X3286759Y4022852D01*
X3260852Y4022852D01*
X3245358Y4017518D01*
X3234943Y4012437D01*
X3224529Y4002023D01*
X3219450Y3991610D01*
X3219450Y3970781D01*
X3224529Y3960368D01*
X3234943Y3949954D01*
X3245358Y3944873D01*
X3260852Y3939539D01*
X3286759Y3939539D01*
X3302508Y3944873D01*
X3312922Y3949954D01*
X3323336Y3960368D01*
X3328415Y3970781D01*
X3328415Y3991610D01*
X3328415Y3868928D02*
G01*
X3219450Y3868928D01*
X3328415Y3905250D02*
G01*
X3328415Y3832605D01*
X3328415Y3772407D02*
G01*
X3323336Y3787902D01*
X3312922Y3793236D01*
X3302508Y3793236D01*
X3292093Y3787902D01*
X3286759Y3777487D01*
X3281679Y3756660D01*
X3276600Y3741165D01*
X3266186Y3730752D01*
X3255772Y3725671D01*
X3240024Y3725671D01*
X3229609Y3730752D01*
X3224529Y3736086D01*
X3219450Y3751579D01*
X3219450Y3772407D01*
X3224529Y3787902D01*
X3229609Y3793236D01*
X3240024Y3798315D01*
X3255772Y3798315D01*
X3266186Y3793236D01*
X3276600Y3782821D01*
X3281679Y3767073D01*
X3286759Y3746500D01*
X3292093Y3736086D01*
X3302508Y3730752D01*
X3312922Y3730752D01*
X3323336Y3736086D01*
X3328415Y3751579D01*
X3328415Y3772407D01*
X3328415Y3691381D02*
G01*
X3219450Y3691381D01*
X3328415Y3691381D02*
G01*
X3328415Y3623818D01*
X3276600Y3691381D02*
G01*
X3276600Y3649726D01*
X3219450Y3691381D02*
G01*
X3219450Y3623818D01*
X3312922Y3516629D02*
G01*
X3323336Y3527044D01*
X3328415Y3542792D01*
X3328415Y3563620D01*
X3323336Y3579113D01*
X3312922Y3589528D01*
X3302508Y3589528D01*
X3292093Y3584194D01*
X3286759Y3579113D01*
X3281679Y3568700D01*
X3271265Y3537457D01*
X3266186Y3527044D01*
X3260852Y3521963D01*
X3250438Y3516629D01*
X3234943Y3516629D01*
X3224529Y3527044D01*
X3219450Y3542792D01*
X3219450Y3563620D01*
X3224529Y3579113D01*
X3234943Y3589528D01*
X3302508Y3404615D02*
G01*
X3312922Y3409695D01*
X3323336Y3420110D01*
X3328415Y3430523D01*
X3328415Y3451352D01*
X3323336Y3461765D01*
X3312922Y3472179D01*
X3302508Y3477260D01*
X3286759Y3482339D01*
X3260852Y3482339D01*
X3245358Y3477260D01*
X3234943Y3472179D01*
X3224529Y3461765D01*
X3219450Y3451352D01*
X3219450Y3430523D01*
X3224529Y3420110D01*
X3234943Y3409695D01*
X3245358Y3404615D01*
X4621784Y6350000D02*
G01*
X4730750Y6350000D01*
X4621784Y6350000D02*
G01*
X4730750Y6391655D01*
X4621784Y6433057D02*
G01*
X4730750Y6391655D01*
X4621784Y6433057D02*
G01*
X4730750Y6433057D01*
X4642611Y6467347D02*
G01*
X4637277Y6477762D01*
X4621784Y6493510D01*
X4730750Y6493510D01*
D11*
X4798822Y5806947D02*
G01*
X4792979Y5818631D01*
X4775708Y5835904D01*
X4896865Y5835904D01*
D10*
X3962400Y661415D02*
G01*
X3962400Y552450D01*
X3962400Y661415D02*
G01*
X4009136Y661415D01*
X4024629Y656336D01*
X4029963Y651002D01*
X4035043Y640587D01*
X4035043Y630173D01*
X4029963Y619760D01*
X4024629Y614679D01*
X4009136Y609600D01*
X3962400Y609600D01*
X3998722Y609600D02*
G01*
X4035043Y552450D01*
X4147311Y635507D02*
G01*
X4142231Y645921D01*
X4131818Y656336D01*
X4121404Y661415D01*
X4100575Y661415D01*
X4090161Y656336D01*
X4079747Y645921D01*
X4074668Y635507D01*
X4069334Y619760D01*
X4069334Y593852D01*
X4074668Y578357D01*
X4079747Y567944D01*
X4090161Y557529D01*
X4100575Y552450D01*
X4121404Y552450D01*
X4131818Y557529D01*
X4142231Y567944D01*
X4147311Y578357D01*
X4181602Y515873D02*
G01*
X4275074Y515873D01*
X4309363Y661415D02*
G01*
X4309363Y552450D01*
X4309363Y661415D02*
G01*
X4356100Y661415D01*
X4371847Y656336D01*
X4376927Y651002D01*
X4382261Y640587D01*
X4382261Y625094D01*
X4376927Y614679D01*
X4371847Y609600D01*
X4356100Y604265D01*
X4309363Y604265D01*
X4447540Y661415D02*
G01*
X4437379Y656336D01*
X4426965Y645921D01*
X4421631Y635507D01*
X4416552Y619760D01*
X4416552Y593852D01*
X4421631Y578357D01*
X4426965Y567944D01*
X4437379Y557529D01*
X4447540Y552450D01*
X4468368Y552450D01*
X4478781Y557529D01*
X4489195Y567944D01*
X4494529Y578357D01*
X4499609Y593852D01*
X4499609Y619760D01*
X4494529Y635507D01*
X4489195Y645921D01*
X4478781Y656336D01*
X4468368Y661415D01*
X4447540Y661415D01*
X4533900Y661415D02*
G01*
X4559808Y552450D01*
X4585970Y661415D02*
G01*
X4559808Y552450D01*
X4585970Y661415D02*
G01*
X4611877Y552450D01*
X4637786Y661415D02*
G01*
X4611877Y552450D01*
X4677409Y635507D02*
G01*
X4677409Y640587D01*
X4682490Y651002D01*
X4687570Y656336D01*
X4697984Y661415D01*
X4718811Y661415D01*
X4729225Y656336D01*
X4734559Y651002D01*
X4739640Y640587D01*
X4739640Y630173D01*
X4734559Y619760D01*
X4724145Y604265D01*
X4672075Y552450D01*
X4744720Y552450D01*
X7607300Y483615D02*
G01*
X7607300Y374650D01*
X7607300Y483615D02*
G01*
X7654036Y483615D01*
X7669529Y478536D01*
X7674863Y473202D01*
X7679943Y462787D01*
X7679943Y452373D01*
X7674863Y441960D01*
X7669529Y436879D01*
X7654036Y431800D01*
X7607300Y431800D01*
X7643622Y431800D02*
G01*
X7679943Y374650D01*
X7714234Y483615D02*
G01*
X7787131Y374650D01*
X7787131Y483615D02*
G01*
X7714234Y374650D01*
X7821422Y338073D02*
G01*
X7914893Y338073D01*
X7985506Y483615D02*
G01*
X7985506Y374650D01*
X7949184Y483615D02*
G01*
X8021827Y483615D01*
X8056118Y483615D02*
G01*
X8129015Y374650D01*
X8129015Y483615D02*
G01*
X8056118Y374650D01*
X8168386Y457707D02*
G01*
X8168386Y462787D01*
X8173720Y473202D01*
X8178800Y478536D01*
X8189213Y483615D01*
X8210041Y483615D01*
X8220456Y478536D01*
X8225536Y473202D01*
X8230870Y462787D01*
X8230870Y452373D01*
X8225536Y441960D01*
X8215122Y426465D01*
X8163306Y374650D01*
X8235950Y374650D01*
X3365500Y1017015D02*
G01*
X3365500Y939037D01*
X3370579Y923544D01*
X3380993Y913129D01*
X3396741Y908050D01*
X3407156Y908050D01*
X3422650Y913129D01*
X3433063Y923544D01*
X3438143Y939037D01*
X3438143Y1017015D01*
X3477768Y991107D02*
G01*
X3477768Y996187D01*
X3482847Y1006602D01*
X3488181Y1011936D01*
X3498595Y1017015D01*
X3519170Y1017015D01*
X3529584Y1011936D01*
X3534918Y1006602D01*
X3539997Y996187D01*
X3539997Y985773D01*
X3534918Y975360D01*
X3524504Y959865D01*
X3472434Y908050D01*
X3545331Y908050D01*
X8483600Y3480815D02*
G01*
X8483600Y3402837D01*
X8488679Y3387344D01*
X8499093Y3376929D01*
X8514841Y3371850D01*
X8525256Y3371850D01*
X8540750Y3376929D01*
X8551163Y3387344D01*
X8556243Y3402837D01*
X8556243Y3480815D01*
X8600947Y3480815D02*
G01*
X8658097Y3480815D01*
X8627109Y3439160D01*
X8642604Y3439160D01*
X8653018Y3434079D01*
X8658097Y3429000D01*
X8663431Y3413252D01*
X8663431Y3402837D01*
X8658097Y3387344D01*
X8647684Y3376929D01*
X8632190Y3371850D01*
X8616695Y3371850D01*
X8600947Y3376929D01*
X8595868Y3382010D01*
X8590534Y3392423D01*
X7594600Y2325115D02*
G01*
X7594600Y2247137D01*
X7599679Y2231644D01*
X7610093Y2221229D01*
X7625841Y2216150D01*
X7636256Y2216150D01*
X7651750Y2221229D01*
X7662163Y2231644D01*
X7667243Y2247137D01*
X7667243Y2325115D01*
X7753604Y2325115D02*
G01*
X7701534Y2252471D01*
X7779511Y2252471D01*
X7753604Y2325115D02*
G01*
X7753604Y2216150D01*
X5834379Y5105907D02*
G01*
X5834379Y5110987D01*
X5839713Y5121402D01*
X5844793Y5126736D01*
X5855208Y5131815D01*
X5876036Y5131815D01*
X5886450Y5126736D01*
X5891529Y5121402D01*
X5896863Y5110987D01*
X5896863Y5100573D01*
X5891529Y5090160D01*
X5881370Y5074665D01*
X5829300Y5022850D01*
X5901943Y5022850D01*
D12*
X6773113Y571449D02*
G01*
X6722313Y571449D01*
X6749999Y608279D01*
X6736029Y608279D01*
X6726885Y613105D01*
X6722313Y617677D01*
X6717741Y631393D01*
X6717741Y640791D01*
X6722313Y654507D01*
X6731457Y663905D01*
X6745427Y668477D01*
X6759143Y668477D01*
X6773113Y663905D01*
X6777685Y659079D01*
X6782257Y649935D01*
X6687261Y571449D02*
G01*
X6650177Y668477D01*
X6613347Y571449D02*
G01*
X6650177Y668477D01*
X6573469Y571449D02*
G01*
X6522669Y571449D01*
X6550355Y608279D01*
X6536639Y608279D01*
X6527241Y613105D01*
X6522669Y617677D01*
X6518097Y631393D01*
X6518097Y640791D01*
X6522669Y654507D01*
X6532067Y663905D01*
X6545783Y668477D01*
X6559753Y668477D01*
X6573469Y663905D01*
X6578041Y659079D01*
X6582867Y649935D01*
X6712915Y848563D02*
G01*
X6717741Y839419D01*
X6726885Y830021D01*
X6736029Y825449D01*
X6754571Y825449D01*
X6763715Y830021D01*
X6773113Y839419D01*
X6777685Y848563D01*
X6782257Y862279D01*
X6782257Y885393D01*
X6777685Y899363D01*
X6773113Y908507D01*
X6763715Y917905D01*
X6754571Y922477D01*
X6736029Y922477D01*
X6726885Y917905D01*
X6717741Y908507D01*
X6712915Y899363D01*
X6712915Y885393D01*
X6736029Y885393D02*
G01*
X6712915Y885393D01*
X6682435Y825449D02*
G01*
X6682435Y922477D01*
X6682435Y825449D02*
G01*
X6617919Y922477D01*
X6617919Y825449D02*
G01*
X6617919Y922477D01*
X6587439Y825449D02*
G01*
X6587439Y922477D01*
X6587439Y825449D02*
G01*
X6555181Y825449D01*
X6541211Y830021D01*
X6532067Y839419D01*
X6527241Y848563D01*
X6522669Y862279D01*
X6522669Y885393D01*
X6527241Y899363D01*
X6532067Y908507D01*
X6541211Y917905D01*
X6555181Y922477D01*
X6587439Y922477D01*
X6782257Y1079449D02*
G01*
X6782257Y1176477D01*
X6724091Y1079449D02*
G01*
X6733235Y1084021D01*
X6742633Y1093419D01*
X6747205Y1102563D01*
X6751777Y1116279D01*
X6751777Y1139393D01*
X6747205Y1153363D01*
X6742633Y1162507D01*
X6733235Y1171905D01*
X6724091Y1176477D01*
X6705549Y1176477D01*
X6696405Y1171905D01*
X6687261Y1162507D01*
X6682435Y1153363D01*
X6677863Y1139393D01*
X6677863Y1116279D01*
X6682435Y1102563D01*
X6687261Y1093419D01*
X6696405Y1084021D01*
X6705549Y1079449D01*
X6724091Y1079449D01*
X6647383Y1097991D02*
G01*
X6638239Y1093419D01*
X6624269Y1079449D01*
X6624269Y1176477D01*
X6538417Y1079449D02*
G01*
X6584645Y1079449D01*
X6589217Y1121105D01*
X6584645Y1116279D01*
X6570675Y1111707D01*
X6556959Y1111707D01*
X6542989Y1116279D01*
X6533845Y1125677D01*
X6529273Y1139393D01*
X6529273Y1148791D01*
X6533845Y1162507D01*
X6542989Y1171905D01*
X6556959Y1176477D01*
X6570675Y1176477D01*
X6584645Y1171905D01*
X6589217Y1167079D01*
X6593789Y1157935D01*
X6782257Y1333449D02*
G01*
X6782257Y1430477D01*
X6724091Y1333449D02*
G01*
X6733235Y1338021D01*
X6742633Y1347419D01*
X6747205Y1356563D01*
X6751777Y1370279D01*
X6751777Y1393393D01*
X6747205Y1407363D01*
X6742633Y1416507D01*
X6733235Y1425905D01*
X6724091Y1430477D01*
X6705549Y1430477D01*
X6696405Y1425905D01*
X6687261Y1416507D01*
X6682435Y1407363D01*
X6677863Y1393393D01*
X6677863Y1370279D01*
X6682435Y1356563D01*
X6687261Y1347419D01*
X6696405Y1338021D01*
X6705549Y1333449D01*
X6724091Y1333449D01*
X6642811Y1356563D02*
G01*
X6642811Y1351991D01*
X6638239Y1342593D01*
X6633667Y1338021D01*
X6624269Y1333449D01*
X6605981Y1333449D01*
X6596583Y1338021D01*
X6592011Y1342593D01*
X6587439Y1351991D01*
X6587439Y1361135D01*
X6592011Y1370279D01*
X6601155Y1384249D01*
X6647383Y1430477D01*
X6582867Y1430477D01*
X6782257Y1587449D02*
G01*
X6782257Y1684477D01*
X6724091Y1587449D02*
G01*
X6733235Y1592021D01*
X6742633Y1601419D01*
X6747205Y1610563D01*
X6751777Y1624279D01*
X6751777Y1647393D01*
X6747205Y1661363D01*
X6742633Y1670507D01*
X6733235Y1679905D01*
X6724091Y1684477D01*
X6705549Y1684477D01*
X6696405Y1679905D01*
X6687261Y1670507D01*
X6682435Y1661363D01*
X6677863Y1647393D01*
X6677863Y1624279D01*
X6682435Y1610563D01*
X6687261Y1601419D01*
X6696405Y1592021D01*
X6705549Y1587449D01*
X6724091Y1587449D01*
X6601155Y1587449D02*
G01*
X6647383Y1652219D01*
X6578041Y1652219D01*
X6601155Y1587449D02*
G01*
X6601155Y1684477D01*
X6782257Y1841449D02*
G01*
X6782257Y1938477D01*
X6724091Y1841449D02*
G01*
X6733235Y1846021D01*
X6742633Y1855419D01*
X6747205Y1864563D01*
X6751777Y1878279D01*
X6751777Y1901393D01*
X6747205Y1915363D01*
X6742633Y1924507D01*
X6733235Y1933905D01*
X6724091Y1938477D01*
X6705549Y1938477D01*
X6696405Y1933905D01*
X6687261Y1924507D01*
X6682435Y1915363D01*
X6677863Y1901393D01*
X6677863Y1878279D01*
X6682435Y1864563D01*
X6687261Y1855419D01*
X6696405Y1846021D01*
X6705549Y1841449D01*
X6724091Y1841449D01*
X6647383Y1859991D02*
G01*
X6638239Y1855419D01*
X6624269Y1841449D01*
X6624269Y1938477D01*
X6538417Y1855419D02*
G01*
X6542989Y1846021D01*
X6556959Y1841449D01*
X6566103Y1841449D01*
X6580073Y1846021D01*
X6589217Y1859991D01*
X6593789Y1883105D01*
X6593789Y1906219D01*
X6589217Y1924507D01*
X6580073Y1933905D01*
X6566103Y1938477D01*
X6561531Y1938477D01*
X6547561Y1933905D01*
X6538417Y1924507D01*
X6533845Y1910791D01*
X6533845Y1906219D01*
X6538417Y1892249D01*
X6547561Y1883105D01*
X6561531Y1878279D01*
X6566103Y1878279D01*
X6580073Y1883105D01*
X6589217Y1892249D01*
X6593789Y1906219D01*
X6782257Y2095449D02*
G01*
X6782257Y2192477D01*
X6724091Y2095449D02*
G01*
X6733235Y2100021D01*
X6742633Y2109419D01*
X6747205Y2118563D01*
X6751777Y2132279D01*
X6751777Y2155393D01*
X6747205Y2169363D01*
X6742633Y2178507D01*
X6733235Y2187905D01*
X6724091Y2192477D01*
X6705549Y2192477D01*
X6696405Y2187905D01*
X6687261Y2178507D01*
X6682435Y2169363D01*
X6677863Y2155393D01*
X6677863Y2132279D01*
X6682435Y2118563D01*
X6687261Y2109419D01*
X6696405Y2100021D01*
X6705549Y2095449D01*
X6724091Y2095449D01*
X6647383Y2113991D02*
G01*
X6638239Y2109419D01*
X6624269Y2095449D01*
X6624269Y2192477D01*
X6529273Y2095449D02*
G01*
X6575501Y2192477D01*
X6593789Y2095449D02*
G01*
X6529273Y2095449D01*
X6782257Y2349449D02*
G01*
X6782257Y2446477D01*
X6724091Y2349449D02*
G01*
X6733235Y2354021D01*
X6742633Y2363419D01*
X6747205Y2372563D01*
X6751777Y2386279D01*
X6751777Y2409393D01*
X6747205Y2423363D01*
X6742633Y2432507D01*
X6733235Y2441905D01*
X6724091Y2446477D01*
X6705549Y2446477D01*
X6696405Y2441905D01*
X6687261Y2432507D01*
X6682435Y2423363D01*
X6677863Y2409393D01*
X6677863Y2386279D01*
X6682435Y2372563D01*
X6687261Y2363419D01*
X6696405Y2354021D01*
X6705549Y2349449D01*
X6724091Y2349449D01*
X6592011Y2349449D02*
G01*
X6638239Y2349449D01*
X6642811Y2391105D01*
X6638239Y2386279D01*
X6624269Y2381707D01*
X6610553Y2381707D01*
X6596583Y2386279D01*
X6587439Y2395677D01*
X6582867Y2409393D01*
X6582867Y2418791D01*
X6587439Y2432507D01*
X6596583Y2441905D01*
X6610553Y2446477D01*
X6624269Y2446477D01*
X6638239Y2441905D01*
X6642811Y2437079D01*
X6647383Y2427935D01*
X6782257Y2603449D02*
G01*
X6782257Y2700477D01*
X6724091Y2603449D02*
G01*
X6733235Y2608021D01*
X6742633Y2617419D01*
X6747205Y2626563D01*
X6751777Y2640279D01*
X6751777Y2663393D01*
X6747205Y2677363D01*
X6742633Y2686507D01*
X6733235Y2695905D01*
X6724091Y2700477D01*
X6705549Y2700477D01*
X6696405Y2695905D01*
X6687261Y2686507D01*
X6682435Y2677363D01*
X6677863Y2663393D01*
X6677863Y2640279D01*
X6682435Y2626563D01*
X6687261Y2617419D01*
X6696405Y2608021D01*
X6705549Y2603449D01*
X6724091Y2603449D01*
X6647383Y2621991D02*
G01*
X6638239Y2617419D01*
X6624269Y2603449D01*
X6624269Y2700477D01*
X6570675Y2603449D02*
G01*
X6584645Y2608021D01*
X6589217Y2617419D01*
X6589217Y2626563D01*
X6584645Y2635707D01*
X6575501Y2640279D01*
X6556959Y2645105D01*
X6542989Y2649677D01*
X6533845Y2658821D01*
X6529273Y2668219D01*
X6529273Y2681935D01*
X6533845Y2691079D01*
X6538417Y2695905D01*
X6552387Y2700477D01*
X6570675Y2700477D01*
X6584645Y2695905D01*
X6589217Y2691079D01*
X6593789Y2681935D01*
X6593789Y2668219D01*
X6589217Y2658821D01*
X6580073Y2649677D01*
X6566103Y2645105D01*
X6547561Y2640279D01*
X6538417Y2635707D01*
X6533845Y2626563D01*
X6533845Y2617419D01*
X6538417Y2608021D01*
X6552387Y2603449D01*
X6570675Y2603449D01*
X6782257Y2857449D02*
G01*
X6782257Y2954477D01*
X6724091Y2857449D02*
G01*
X6733235Y2862021D01*
X6742633Y2871419D01*
X6747205Y2880563D01*
X6751777Y2894279D01*
X6751777Y2917393D01*
X6747205Y2931363D01*
X6742633Y2940507D01*
X6733235Y2949905D01*
X6724091Y2954477D01*
X6705549Y2954477D01*
X6696405Y2949905D01*
X6687261Y2940507D01*
X6682435Y2931363D01*
X6677863Y2917393D01*
X6677863Y2894279D01*
X6682435Y2880563D01*
X6687261Y2871419D01*
X6696405Y2862021D01*
X6705549Y2857449D01*
X6724091Y2857449D01*
X6647383Y2875991D02*
G01*
X6638239Y2871419D01*
X6624269Y2857449D01*
X6624269Y2954477D01*
X6533845Y2889707D02*
G01*
X6538417Y2903677D01*
X6547561Y2912821D01*
X6561531Y2917393D01*
X6566103Y2917393D01*
X6580073Y2912821D01*
X6589217Y2903677D01*
X6593789Y2889707D01*
X6593789Y2885135D01*
X6589217Y2871419D01*
X6580073Y2862021D01*
X6566103Y2857449D01*
X6561531Y2857449D01*
X6547561Y2862021D01*
X6538417Y2871419D01*
X6533845Y2889707D01*
X6533845Y2912821D01*
X6538417Y2935935D01*
X6547561Y2949905D01*
X6561531Y2954477D01*
X6570675Y2954477D01*
X6584645Y2949905D01*
X6589217Y2940507D01*
X6782257Y3111449D02*
G01*
X6782257Y3208477D01*
X6724091Y3111449D02*
G01*
X6733235Y3116021D01*
X6742633Y3125419D01*
X6747205Y3134563D01*
X6751777Y3148279D01*
X6751777Y3171393D01*
X6747205Y3185363D01*
X6742633Y3194507D01*
X6733235Y3203905D01*
X6724091Y3208477D01*
X6705549Y3208477D01*
X6696405Y3203905D01*
X6687261Y3194507D01*
X6682435Y3185363D01*
X6677863Y3171393D01*
X6677863Y3148279D01*
X6682435Y3134563D01*
X6687261Y3125419D01*
X6696405Y3116021D01*
X6705549Y3111449D01*
X6724091Y3111449D01*
X6642811Y3134563D02*
G01*
X6642811Y3129991D01*
X6638239Y3120593D01*
X6633667Y3116021D01*
X6624269Y3111449D01*
X6605981Y3111449D01*
X6596583Y3116021D01*
X6592011Y3120593D01*
X6587439Y3129991D01*
X6587439Y3139135D01*
X6592011Y3148279D01*
X6601155Y3162249D01*
X6647383Y3208477D01*
X6582867Y3208477D01*
X6552387Y3129991D02*
G01*
X6542989Y3125419D01*
X6529273Y3111449D01*
X6529273Y3208477D01*
X6782257Y3365449D02*
G01*
X6782257Y3462477D01*
X6724091Y3365449D02*
G01*
X6733235Y3370021D01*
X6742633Y3379419D01*
X6747205Y3388563D01*
X6751777Y3402279D01*
X6751777Y3425393D01*
X6747205Y3439363D01*
X6742633Y3448507D01*
X6733235Y3457905D01*
X6724091Y3462477D01*
X6705549Y3462477D01*
X6696405Y3457905D01*
X6687261Y3448507D01*
X6682435Y3439363D01*
X6677863Y3425393D01*
X6677863Y3402279D01*
X6682435Y3388563D01*
X6687261Y3379419D01*
X6696405Y3370021D01*
X6705549Y3365449D01*
X6724091Y3365449D01*
X6638239Y3365449D02*
G01*
X6587439Y3365449D01*
X6615125Y3402279D01*
X6601155Y3402279D01*
X6592011Y3407105D01*
X6587439Y3411677D01*
X6582867Y3425393D01*
X6582867Y3434791D01*
X6587439Y3448507D01*
X6596583Y3457905D01*
X6610553Y3462477D01*
X6624269Y3462477D01*
X6638239Y3457905D01*
X6642811Y3453079D01*
X6647383Y3443935D01*
X6782257Y3619449D02*
G01*
X6782257Y3716477D01*
X6724091Y3619449D02*
G01*
X6733235Y3624021D01*
X6742633Y3633419D01*
X6747205Y3642563D01*
X6751777Y3656279D01*
X6751777Y3679393D01*
X6747205Y3693363D01*
X6742633Y3702507D01*
X6733235Y3711905D01*
X6724091Y3716477D01*
X6705549Y3716477D01*
X6696405Y3711905D01*
X6687261Y3702507D01*
X6682435Y3693363D01*
X6677863Y3679393D01*
X6677863Y3656279D01*
X6682435Y3642563D01*
X6687261Y3633419D01*
X6696405Y3624021D01*
X6705549Y3619449D01*
X6724091Y3619449D01*
X6647383Y3637991D02*
G01*
X6638239Y3633419D01*
X6624269Y3619449D01*
X6624269Y3716477D01*
X6782257Y3873449D02*
G01*
X6782257Y3970477D01*
X6724091Y3873449D02*
G01*
X6733235Y3878021D01*
X6742633Y3887419D01*
X6747205Y3896563D01*
X6751777Y3910279D01*
X6751777Y3933393D01*
X6747205Y3947363D01*
X6742633Y3956507D01*
X6733235Y3965905D01*
X6724091Y3970477D01*
X6705549Y3970477D01*
X6696405Y3965905D01*
X6687261Y3956507D01*
X6682435Y3947363D01*
X6677863Y3933393D01*
X6677863Y3910279D01*
X6682435Y3896563D01*
X6687261Y3887419D01*
X6696405Y3878021D01*
X6705549Y3873449D01*
X6724091Y3873449D01*
X6642811Y3896563D02*
G01*
X6642811Y3891991D01*
X6638239Y3882593D01*
X6633667Y3878021D01*
X6624269Y3873449D01*
X6605981Y3873449D01*
X6596583Y3878021D01*
X6592011Y3882593D01*
X6587439Y3891991D01*
X6587439Y3901135D01*
X6592011Y3910279D01*
X6601155Y3924249D01*
X6647383Y3970477D01*
X6582867Y3970477D01*
X6547561Y3896563D02*
G01*
X6547561Y3891991D01*
X6542989Y3882593D01*
X6538417Y3878021D01*
X6529273Y3873449D01*
X6510731Y3873449D01*
X6501587Y3878021D01*
X6496761Y3882593D01*
X6492189Y3891991D01*
X6492189Y3901135D01*
X6496761Y3910279D01*
X6506159Y3924249D01*
X6552387Y3970477D01*
X6487617Y3970477D01*
X6782257Y4127449D02*
G01*
X6782257Y4224477D01*
X6724091Y4127449D02*
G01*
X6733235Y4132021D01*
X6742633Y4141419D01*
X6747205Y4150563D01*
X6751777Y4164279D01*
X6751777Y4187393D01*
X6747205Y4201363D01*
X6742633Y4210507D01*
X6733235Y4219905D01*
X6724091Y4224477D01*
X6705549Y4224477D01*
X6696405Y4219905D01*
X6687261Y4210507D01*
X6682435Y4201363D01*
X6677863Y4187393D01*
X6677863Y4164279D01*
X6682435Y4150563D01*
X6687261Y4141419D01*
X6696405Y4132021D01*
X6705549Y4127449D01*
X6724091Y4127449D01*
X6642811Y4150563D02*
G01*
X6642811Y4145991D01*
X6638239Y4136593D01*
X6633667Y4132021D01*
X6624269Y4127449D01*
X6605981Y4127449D01*
X6596583Y4132021D01*
X6592011Y4136593D01*
X6587439Y4145991D01*
X6587439Y4155135D01*
X6592011Y4164279D01*
X6601155Y4178249D01*
X6647383Y4224477D01*
X6582867Y4224477D01*
X6542989Y4127449D02*
G01*
X6492189Y4127449D01*
X6519875Y4164279D01*
X6506159Y4164279D01*
X6496761Y4169105D01*
X6492189Y4173677D01*
X6487617Y4187393D01*
X6487617Y4196791D01*
X6492189Y4210507D01*
X6501587Y4219905D01*
X6515303Y4224477D01*
X6529273Y4224477D01*
X6542989Y4219905D01*
X6547561Y4215079D01*
X6552387Y4205935D01*
X5010200Y573430D02*
G01*
X4973370Y670458D01*
X4936286Y573430D02*
G01*
X4973370Y670458D01*
X4905806Y573430D02*
G01*
X4905806Y670458D01*
X4875326Y573430D02*
G01*
X4875326Y670458D01*
X4875326Y573430D02*
G01*
X4810810Y670458D01*
X4810810Y573430D02*
G01*
X4810810Y670458D01*
X4941112Y850544D02*
G01*
X4945684Y841400D01*
X4954828Y832002D01*
X4964226Y827430D01*
X4982514Y827430D01*
X4991912Y832002D01*
X5001056Y841400D01*
X5005628Y850544D01*
X5010200Y864514D01*
X5010200Y887374D01*
X5005628Y901344D01*
X5001056Y910488D01*
X4991912Y919886D01*
X4982514Y924458D01*
X4964226Y924458D01*
X4954828Y919886D01*
X4945684Y910488D01*
X4941112Y901344D01*
X4941112Y887374D01*
X4964226Y887374D02*
G01*
X4941112Y887374D01*
X4910632Y827430D02*
G01*
X4910632Y924458D01*
X4910632Y827430D02*
G01*
X4845862Y924458D01*
X4845862Y827430D02*
G01*
X4845862Y924458D01*
X4815382Y827430D02*
G01*
X4815382Y924458D01*
X4815382Y827430D02*
G01*
X4783124Y827430D01*
X4769154Y832002D01*
X4760010Y841400D01*
X4755438Y850544D01*
X4750866Y864514D01*
X4750866Y887374D01*
X4755438Y901344D01*
X4760010Y910488D01*
X4769154Y919886D01*
X4783124Y924458D01*
X4815382Y924458D01*
X5010200Y1081430D02*
G01*
X5010200Y1178458D01*
X4952034Y1081430D02*
G01*
X4961432Y1086002D01*
X4970576Y1095400D01*
X4975148Y1104544D01*
X4979720Y1118514D01*
X4979720Y1141374D01*
X4975148Y1155344D01*
X4970576Y1164488D01*
X4961432Y1173886D01*
X4952034Y1178458D01*
X4933746Y1178458D01*
X4924348Y1173886D01*
X4915204Y1164488D01*
X4910632Y1155344D01*
X4905806Y1141374D01*
X4905806Y1118514D01*
X4910632Y1104544D01*
X4915204Y1095400D01*
X4924348Y1086002D01*
X4933746Y1081430D01*
X4952034Y1081430D01*
X4875326Y1099972D02*
G01*
X4866182Y1095400D01*
X4852466Y1081430D01*
X4852466Y1178458D01*
X4812588Y1081430D02*
G01*
X4761788Y1081430D01*
X4789474Y1118514D01*
X4775758Y1118514D01*
X4766360Y1123086D01*
X4761788Y1127658D01*
X4757216Y1141374D01*
X4757216Y1150772D01*
X4761788Y1164488D01*
X4771186Y1173886D01*
X4784902Y1178458D01*
X4798872Y1178458D01*
X4812588Y1173886D01*
X4817160Y1169314D01*
X4821986Y1159916D01*
X5010200Y1335430D02*
G01*
X5010200Y1432458D01*
X4952034Y1335430D02*
G01*
X4961432Y1340002D01*
X4970576Y1349400D01*
X4975148Y1358544D01*
X4979720Y1372514D01*
X4979720Y1395374D01*
X4975148Y1409344D01*
X4970576Y1418488D01*
X4961432Y1427886D01*
X4952034Y1432458D01*
X4933746Y1432458D01*
X4924348Y1427886D01*
X4915204Y1418488D01*
X4910632Y1409344D01*
X4905806Y1395374D01*
X4905806Y1372514D01*
X4910632Y1358544D01*
X4915204Y1349400D01*
X4924348Y1340002D01*
X4933746Y1335430D01*
X4952034Y1335430D01*
X4875326Y1353972D02*
G01*
X4866182Y1349400D01*
X4852466Y1335430D01*
X4852466Y1432458D01*
X4817160Y1358544D02*
G01*
X4817160Y1353972D01*
X4812588Y1344574D01*
X4808016Y1340002D01*
X4798872Y1335430D01*
X4780330Y1335430D01*
X4771186Y1340002D01*
X4766360Y1344574D01*
X4761788Y1353972D01*
X4761788Y1363116D01*
X4766360Y1372514D01*
X4775758Y1386230D01*
X4821986Y1432458D01*
X4757216Y1432458D01*
X5010200Y1589430D02*
G01*
X5010200Y1686458D01*
X4952034Y1589430D02*
G01*
X4961432Y1594002D01*
X4970576Y1603400D01*
X4975148Y1612544D01*
X4979720Y1626514D01*
X4979720Y1649374D01*
X4975148Y1663344D01*
X4970576Y1672488D01*
X4961432Y1681886D01*
X4952034Y1686458D01*
X4933746Y1686458D01*
X4924348Y1681886D01*
X4915204Y1672488D01*
X4910632Y1663344D01*
X4905806Y1649374D01*
X4905806Y1626514D01*
X4910632Y1612544D01*
X4915204Y1603400D01*
X4924348Y1594002D01*
X4933746Y1589430D01*
X4952034Y1589430D01*
X4875326Y1607972D02*
G01*
X4866182Y1603400D01*
X4852466Y1589430D01*
X4852466Y1686458D01*
X4775758Y1589430D02*
G01*
X4821986Y1654200D01*
X4752644Y1654200D01*
X4775758Y1589430D02*
G01*
X4775758Y1686458D01*
X5010200Y1843430D02*
G01*
X5010200Y1940458D01*
X4952034Y1843430D02*
G01*
X4961432Y1848002D01*
X4970576Y1857400D01*
X4975148Y1866544D01*
X4979720Y1880514D01*
X4979720Y1903374D01*
X4975148Y1917344D01*
X4970576Y1926488D01*
X4961432Y1935886D01*
X4952034Y1940458D01*
X4933746Y1940458D01*
X4924348Y1935886D01*
X4915204Y1926488D01*
X4910632Y1917344D01*
X4905806Y1903374D01*
X4905806Y1880514D01*
X4910632Y1866544D01*
X4915204Y1857400D01*
X4924348Y1848002D01*
X4933746Y1843430D01*
X4952034Y1843430D01*
X4870754Y1866544D02*
G01*
X4870754Y1861972D01*
X4866182Y1852574D01*
X4861610Y1848002D01*
X4852466Y1843430D01*
X4833924Y1843430D01*
X4824526Y1848002D01*
X4819954Y1852574D01*
X4815382Y1861972D01*
X4815382Y1871116D01*
X4819954Y1880514D01*
X4829352Y1894230D01*
X4875326Y1940458D01*
X4810810Y1940458D01*
X4715560Y1843430D02*
G01*
X4761788Y1940458D01*
X4780330Y1843430D02*
G01*
X4715560Y1843430D01*
X5010200Y2097430D02*
G01*
X5010200Y2194458D01*
X4952034Y2097430D02*
G01*
X4961432Y2102002D01*
X4970576Y2111400D01*
X4975148Y2120544D01*
X4979720Y2134514D01*
X4979720Y2157374D01*
X4975148Y2171344D01*
X4970576Y2180488D01*
X4961432Y2189886D01*
X4952034Y2194458D01*
X4933746Y2194458D01*
X4924348Y2189886D01*
X4915204Y2180488D01*
X4910632Y2171344D01*
X4905806Y2157374D01*
X4905806Y2134514D01*
X4910632Y2120544D01*
X4915204Y2111400D01*
X4924348Y2102002D01*
X4933746Y2097430D01*
X4952034Y2097430D01*
X4870754Y2120544D02*
G01*
X4870754Y2115972D01*
X4866182Y2106574D01*
X4861610Y2102002D01*
X4852466Y2097430D01*
X4833924Y2097430D01*
X4824526Y2102002D01*
X4819954Y2106574D01*
X4815382Y2115972D01*
X4815382Y2125116D01*
X4819954Y2134514D01*
X4829352Y2148230D01*
X4875326Y2194458D01*
X4810810Y2194458D01*
X4724958Y2111400D02*
G01*
X4729530Y2102002D01*
X4743246Y2097430D01*
X4752644Y2097430D01*
X4766360Y2102002D01*
X4775758Y2115972D01*
X4780330Y2139086D01*
X4780330Y2162200D01*
X4775758Y2180488D01*
X4766360Y2189886D01*
X4752644Y2194458D01*
X4748072Y2194458D01*
X4734102Y2189886D01*
X4724958Y2180488D01*
X4720386Y2166772D01*
X4720386Y2162200D01*
X4724958Y2148230D01*
X4734102Y2139086D01*
X4748072Y2134514D01*
X4752644Y2134514D01*
X4766360Y2139086D01*
X4775758Y2148230D01*
X4780330Y2162200D01*
X5010200Y2351430D02*
G01*
X5010200Y2448458D01*
X4952034Y2351430D02*
G01*
X4961432Y2356002D01*
X4970576Y2365400D01*
X4975148Y2374544D01*
X4979720Y2388514D01*
X4979720Y2411374D01*
X4975148Y2425344D01*
X4970576Y2434488D01*
X4961432Y2443886D01*
X4952034Y2448458D01*
X4933746Y2448458D01*
X4924348Y2443886D01*
X4915204Y2434488D01*
X4910632Y2425344D01*
X4905806Y2411374D01*
X4905806Y2388514D01*
X4910632Y2374544D01*
X4915204Y2365400D01*
X4924348Y2356002D01*
X4933746Y2351430D01*
X4952034Y2351430D01*
X4870754Y2374544D02*
G01*
X4870754Y2369972D01*
X4866182Y2360574D01*
X4861610Y2356002D01*
X4852466Y2351430D01*
X4833924Y2351430D01*
X4824526Y2356002D01*
X4819954Y2360574D01*
X4815382Y2369972D01*
X4815382Y2379116D01*
X4819954Y2388514D01*
X4829352Y2402230D01*
X4875326Y2448458D01*
X4810810Y2448458D01*
X4724958Y2351430D02*
G01*
X4771186Y2351430D01*
X4775758Y2393086D01*
X4771186Y2388514D01*
X4757216Y2383688D01*
X4743246Y2383688D01*
X4729530Y2388514D01*
X4720386Y2397658D01*
X4715560Y2411374D01*
X4715560Y2420772D01*
X4720386Y2434488D01*
X4729530Y2443886D01*
X4743246Y2448458D01*
X4757216Y2448458D01*
X4771186Y2443886D01*
X4775758Y2439314D01*
X4780330Y2429916D01*
X5010200Y2605430D02*
G01*
X5010200Y2702458D01*
X4952034Y2605430D02*
G01*
X4961432Y2610002D01*
X4970576Y2619400D01*
X4975148Y2628544D01*
X4979720Y2642514D01*
X4979720Y2665374D01*
X4975148Y2679344D01*
X4970576Y2688488D01*
X4961432Y2697886D01*
X4952034Y2702458D01*
X4933746Y2702458D01*
X4924348Y2697886D01*
X4915204Y2688488D01*
X4910632Y2679344D01*
X4905806Y2665374D01*
X4905806Y2642514D01*
X4910632Y2628544D01*
X4915204Y2619400D01*
X4924348Y2610002D01*
X4933746Y2605430D01*
X4952034Y2605430D01*
X4866182Y2605430D02*
G01*
X4815382Y2605430D01*
X4843068Y2642514D01*
X4829352Y2642514D01*
X4819954Y2647086D01*
X4815382Y2651658D01*
X4810810Y2665374D01*
X4810810Y2674772D01*
X4815382Y2688488D01*
X4824526Y2697886D01*
X4838496Y2702458D01*
X4852466Y2702458D01*
X4866182Y2697886D01*
X4870754Y2693314D01*
X4875326Y2683916D01*
X4771186Y2605430D02*
G01*
X4720386Y2605430D01*
X4748072Y2642514D01*
X4734102Y2642514D01*
X4724958Y2647086D01*
X4720386Y2651658D01*
X4715560Y2665374D01*
X4715560Y2674772D01*
X4720386Y2688488D01*
X4729530Y2697886D01*
X4743246Y2702458D01*
X4757216Y2702458D01*
X4771186Y2697886D01*
X4775758Y2693314D01*
X4780330Y2683916D01*
X5010200Y2859430D02*
G01*
X5010200Y2956458D01*
X4952034Y2859430D02*
G01*
X4961432Y2864002D01*
X4970576Y2873400D01*
X4975148Y2882544D01*
X4979720Y2896514D01*
X4979720Y2919374D01*
X4975148Y2933344D01*
X4970576Y2942488D01*
X4961432Y2951886D01*
X4952034Y2956458D01*
X4933746Y2956458D01*
X4924348Y2951886D01*
X4915204Y2942488D01*
X4910632Y2933344D01*
X4905806Y2919374D01*
X4905806Y2896514D01*
X4910632Y2882544D01*
X4915204Y2873400D01*
X4924348Y2864002D01*
X4933746Y2859430D01*
X4952034Y2859430D01*
X4866182Y2859430D02*
G01*
X4815382Y2859430D01*
X4843068Y2896514D01*
X4829352Y2896514D01*
X4819954Y2901086D01*
X4815382Y2905658D01*
X4810810Y2919374D01*
X4810810Y2928772D01*
X4815382Y2942488D01*
X4824526Y2951886D01*
X4838496Y2956458D01*
X4852466Y2956458D01*
X4866182Y2951886D01*
X4870754Y2947314D01*
X4875326Y2937916D01*
X4775758Y2882544D02*
G01*
X4775758Y2877972D01*
X4771186Y2868574D01*
X4766360Y2864002D01*
X4757216Y2859430D01*
X4738674Y2859430D01*
X4729530Y2864002D01*
X4724958Y2868574D01*
X4720386Y2877972D01*
X4720386Y2887116D01*
X4724958Y2896514D01*
X4734102Y2910230D01*
X4780330Y2956458D01*
X4715560Y2956458D01*
X5010200Y3113430D02*
G01*
X5010200Y3210458D01*
X4952034Y3113430D02*
G01*
X4961432Y3118002D01*
X4970576Y3127400D01*
X4975148Y3136544D01*
X4979720Y3150514D01*
X4979720Y3173374D01*
X4975148Y3187344D01*
X4970576Y3196488D01*
X4961432Y3205886D01*
X4952034Y3210458D01*
X4933746Y3210458D01*
X4924348Y3205886D01*
X4915204Y3196488D01*
X4910632Y3187344D01*
X4905806Y3173374D01*
X4905806Y3150514D01*
X4910632Y3136544D01*
X4915204Y3127400D01*
X4924348Y3118002D01*
X4933746Y3113430D01*
X4952034Y3113430D01*
X4866182Y3113430D02*
G01*
X4815382Y3113430D01*
X4843068Y3150514D01*
X4829352Y3150514D01*
X4819954Y3155086D01*
X4815382Y3159658D01*
X4810810Y3173374D01*
X4810810Y3182772D01*
X4815382Y3196488D01*
X4824526Y3205886D01*
X4838496Y3210458D01*
X4852466Y3210458D01*
X4866182Y3205886D01*
X4870754Y3201314D01*
X4875326Y3191916D01*
X4724958Y3113430D02*
G01*
X4771186Y3113430D01*
X4775758Y3155086D01*
X4771186Y3150514D01*
X4757216Y3145688D01*
X4743246Y3145688D01*
X4729530Y3150514D01*
X4720386Y3159658D01*
X4715560Y3173374D01*
X4715560Y3182772D01*
X4720386Y3196488D01*
X4729530Y3205886D01*
X4743246Y3210458D01*
X4757216Y3210458D01*
X4771186Y3205886D01*
X4775758Y3201314D01*
X4780330Y3191916D01*
X5010200Y3367430D02*
G01*
X5010200Y3464458D01*
X4952034Y3367430D02*
G01*
X4961432Y3372002D01*
X4970576Y3381400D01*
X4975148Y3390544D01*
X4979720Y3404514D01*
X4979720Y3427374D01*
X4975148Y3441344D01*
X4970576Y3450488D01*
X4961432Y3459886D01*
X4952034Y3464458D01*
X4933746Y3464458D01*
X4924348Y3459886D01*
X4915204Y3450488D01*
X4910632Y3441344D01*
X4905806Y3427374D01*
X4905806Y3404514D01*
X4910632Y3390544D01*
X4915204Y3381400D01*
X4924348Y3372002D01*
X4933746Y3367430D01*
X4952034Y3367430D01*
X4866182Y3367430D02*
G01*
X4815382Y3367430D01*
X4843068Y3404514D01*
X4829352Y3404514D01*
X4819954Y3409086D01*
X4815382Y3413658D01*
X4810810Y3427374D01*
X4810810Y3436772D01*
X4815382Y3450488D01*
X4824526Y3459886D01*
X4838496Y3464458D01*
X4852466Y3464458D01*
X4866182Y3459886D01*
X4870754Y3455314D01*
X4875326Y3445916D01*
X4734102Y3367430D02*
G01*
X4780330Y3432200D01*
X4710988Y3432200D01*
X4734102Y3367430D02*
G01*
X4734102Y3464458D01*
X5010200Y3621430D02*
G01*
X4973370Y3718458D01*
X4936286Y3621430D02*
G01*
X4973370Y3718458D01*
X4905806Y3621430D02*
G01*
X4905806Y3718458D01*
X4905806Y3621430D02*
G01*
X4841290Y3718458D01*
X4841290Y3621430D02*
G01*
X4841290Y3718458D01*
X5010200Y3875430D02*
G01*
X4973370Y3972458D01*
X4936286Y3875430D02*
G01*
X4973370Y3972458D01*
X4905806Y3875430D02*
G01*
X4905806Y3972458D01*
X4905806Y3875430D02*
G01*
X4864404Y3875430D01*
X4850434Y3880002D01*
X4845862Y3884574D01*
X4841290Y3893972D01*
X4841290Y3907688D01*
X4845862Y3917086D01*
X4850434Y3921658D01*
X4864404Y3926230D01*
X4905806Y3926230D01*
X5010200Y4129430D02*
G01*
X5010200Y4226458D01*
X5010200Y4129430D02*
G01*
X4950256Y4129430D01*
X5010200Y4175658D02*
G01*
X4973370Y4175658D01*
X5010200Y4226458D02*
G01*
X4950256Y4226458D01*
X4919776Y4129430D02*
G01*
X4919776Y4226458D01*
X4919776Y4129430D02*
G01*
X4855006Y4226458D01*
X4855006Y4129430D02*
G01*
X4855006Y4226458D01*
D13*
X5594604Y1142492D02*
G01*
X5778754Y1142492D01*
X5594604Y1142492D02*
G01*
X5594604Y1256537D01*
X5682234Y1142492D02*
G01*
X5682234Y1212595D01*
X5778754Y1142492D02*
G01*
X5778754Y1256537D01*
X5620765Y1437131D02*
G01*
X5603240Y1419605D01*
X5594604Y1393444D01*
X5594604Y1358137D01*
X5603240Y1331976D01*
X5620765Y1314450D01*
X5638291Y1314450D01*
X5655818Y1323086D01*
X5664708Y1331976D01*
X5673597Y1349502D01*
X5691124Y1402079D01*
X5699759Y1419605D01*
X5708650Y1428495D01*
X5726175Y1437131D01*
X5752338Y1437131D01*
X5770118Y1419605D01*
X5778754Y1393444D01*
X5778754Y1358137D01*
X5770118Y1331976D01*
X5752338Y1314450D01*
X5594604Y1495044D02*
G01*
X5778754Y1495044D01*
X5594604Y1495044D02*
G01*
X5594604Y1574037D01*
X5603240Y1600454D01*
X5612129Y1609089D01*
X5629656Y1617979D01*
X5655818Y1617979D01*
X5673597Y1609089D01*
X5682234Y1600454D01*
X5691124Y1574037D01*
X5691124Y1495044D01*
X5594604Y1693418D02*
G01*
X5594604Y1789937D01*
X5664708Y1737360D01*
X5664708Y1763521D01*
X5673597Y1781047D01*
X5682234Y1789937D01*
X5708650Y1798828D01*
X5726175Y1798828D01*
X5752338Y1789937D01*
X5770118Y1772412D01*
X5778754Y1745995D01*
X5778754Y1719834D01*
X5770118Y1693418D01*
X5761227Y1684528D01*
X5743702Y1675892D01*
X5638291Y1865376D02*
G01*
X5629656Y1865376D01*
X5612129Y1874265D01*
X5603240Y1882902D01*
X5594604Y1900428D01*
X5594604Y1935479D01*
X5603240Y1953260D01*
X5612129Y1961895D01*
X5629656Y1970786D01*
X5647181Y1970786D01*
X5664708Y1961895D01*
X5691124Y1944370D01*
X5778754Y1856739D01*
X5778754Y1979421D01*
X5699759Y2037334D02*
G01*
X5699759Y2195321D01*
X5594604Y2253234D02*
G01*
X5778754Y2253234D01*
X5594604Y2253234D02*
G01*
X5594604Y2314702D01*
X5603240Y2340863D01*
X5620765Y2358644D01*
X5638291Y2367279D01*
X5664708Y2376170D01*
X5708650Y2376170D01*
X5734811Y2367279D01*
X5752338Y2358644D01*
X5770118Y2340863D01*
X5778754Y2314702D01*
X5778754Y2253234D01*
X5708650Y2434081D02*
G01*
X5708650Y2539237D01*
X5691124Y2539237D01*
X5673597Y2530602D01*
X5664708Y2521712D01*
X5655818Y2504186D01*
X5655818Y2477770D01*
X5664708Y2460244D01*
X5682234Y2442718D01*
X5708650Y2434081D01*
X5726175Y2434081D01*
X5752338Y2442718D01*
X5770118Y2460244D01*
X5778754Y2477770D01*
X5778754Y2504186D01*
X5770118Y2521712D01*
X5752338Y2539237D01*
X5655818Y2597150D02*
G01*
X5778754Y2649728D01*
X5655818Y2702560D02*
G01*
X5778754Y2649728D01*
X5594604Y2760471D02*
G01*
X5778754Y2760471D01*
X5655818Y2848102D02*
G01*
X5743702Y2760471D01*
X5708650Y2795523D02*
G01*
X5778754Y2856992D01*
X5594604Y2914904D02*
G01*
X5603240Y2923539D01*
X5594604Y2932429D01*
X5585713Y2923539D01*
X5594604Y2914904D01*
X5655818Y2923539D02*
G01*
X5778754Y2923539D01*
X5594604Y3016504D02*
G01*
X5743702Y3016504D01*
X5770118Y3025394D01*
X5778754Y3042920D01*
X5778754Y3060445D01*
X5655818Y2990342D02*
G01*
X5655818Y3051810D01*
X5594604Y3253486D02*
G01*
X5778754Y3323844D01*
X5594604Y3393947D02*
G01*
X5778754Y3323844D01*
X5629656Y3451860D02*
G01*
X5620765Y3469386D01*
X5594604Y3495802D01*
X5778754Y3495802D01*
X6277863Y4503673D02*
G01*
X6347968Y4687823D01*
X6277863Y4503673D02*
G01*
X6207759Y4687823D01*
X6321806Y4626355D02*
G01*
X6233922Y4626355D01*
X6149847Y4564887D02*
G01*
X6149847Y4687823D01*
X6149847Y4600194D02*
G01*
X6123431Y4573778D01*
X6105906Y4564887D01*
X6079490Y4564887D01*
X6061963Y4573778D01*
X6053327Y4600194D01*
X6053327Y4687823D01*
X5969000Y4503673D02*
G01*
X5969000Y4652771D01*
X5960363Y4679187D01*
X5942584Y4687823D01*
X5925058Y4687823D01*
X5995415Y4564887D02*
G01*
X5933947Y4564887D01*
X5867145Y4617720D02*
G01*
X5761990Y4617720D01*
X5761990Y4600194D01*
X5770625Y4582668D01*
X5779515Y4573778D01*
X5797041Y4564887D01*
X5823458Y4564887D01*
X5840984Y4573778D01*
X5858509Y4591304D01*
X5867145Y4617720D01*
X5867145Y4635245D01*
X5858509Y4661407D01*
X5840984Y4679187D01*
X5823458Y4687823D01*
X5797041Y4687823D01*
X5779515Y4679187D01*
X5761990Y4661407D01*
X5704077Y4564887D02*
G01*
X5704077Y4687823D01*
X5704077Y4600194D02*
G01*
X5677661Y4573778D01*
X5660136Y4564887D01*
X5633720Y4564887D01*
X5616193Y4573778D01*
X5607558Y4600194D01*
X5607558Y4687823D01*
X5549645Y4564887D02*
G01*
X5549645Y4687823D01*
X5549645Y4600194D02*
G01*
X5523229Y4573778D01*
X5505704Y4564887D01*
X5479288Y4564887D01*
X5461761Y4573778D01*
X5453125Y4600194D01*
X5453125Y4687823D01*
X5289804Y4564887D02*
G01*
X5289804Y4687823D01*
X5289804Y4591304D02*
G01*
X5307329Y4573778D01*
X5324856Y4564887D01*
X5351272Y4564887D01*
X5368797Y4573778D01*
X5386324Y4591304D01*
X5395213Y4617720D01*
X5395213Y4635245D01*
X5386324Y4661407D01*
X5368797Y4679187D01*
X5351272Y4687823D01*
X5324856Y4687823D01*
X5307329Y4679187D01*
X5289804Y4661407D01*
D14*
X8051800Y6680200D02*
G01*
X9067800Y6680200D01*
X9067800Y6680200D02*
G01*
X9067800Y6172200D01*
X8051800Y6680200D02*
G01*
X8051800Y6172200D01*
X9067800Y6172200D01*
X8051800Y6604000D02*
G01*
X9067800Y6604000D01*
X8051800Y5664200D02*
G01*
X9067800Y5664200D01*
X9067800Y5664200D02*
G01*
X9067800Y5156200D01*
X8051800Y5664200D02*
G01*
X8051800Y5156200D01*
X9067800Y5156200D01*
X8051800Y5588000D02*
G01*
X9067800Y5588000D01*
X3048000Y6527800D02*
G01*
X4064000Y6527800D01*
X4064000Y6527800D02*
G01*
X4064000Y6019800D01*
X3048000Y6527800D02*
G01*
X3048000Y6019800D01*
X4064000Y6019800D01*
X3048000Y6451600D02*
G01*
X4064000Y6451600D01*
X7962900Y330200D02*
G01*
X8978900Y330200D01*
X8978900Y330200D02*
G01*
X8978900Y-177800D01*
X7962900Y330200D02*
G01*
X7962900Y-177800D01*
X8978900Y-177800D01*
X7962900Y254000D02*
G01*
X8978900Y254000D01*
X9055100Y4851400D02*
G01*
X9055100Y3835400D01*
X9055100Y3835400D02*
G01*
X8547100Y3835400D01*
X9055100Y4851400D02*
G01*
X8547100Y4851400D01*
X8547100Y3835400D01*
X8978900Y4851400D02*
G01*
X8978900Y3835400D01*
X9207500Y2273300D02*
G01*
X9207500Y1257300D01*
X9207500Y1257300D02*
G01*
X8699500Y1257300D01*
X9207500Y2273300D02*
G01*
X8699500Y2273300D01*
X8699500Y1257300D01*
X9131300Y2273300D02*
G01*
X9131300Y1257300D01*
X3200400Y2628900D02*
G01*
X3200400Y1612900D01*
X3200400Y1612900D02*
G01*
X2692400Y1612900D01*
X3200400Y2628900D02*
G01*
X2692400Y2628900D01*
X2692400Y1612900D01*
X3124200Y2628900D02*
G01*
X3124200Y1612900D01*
X3187700Y4648200D02*
G01*
X3187700Y3632200D01*
X3187700Y3632200D02*
G01*
X2679700Y3632200D01*
X3187700Y4648200D02*
G01*
X2679700Y4648200D01*
X2679700Y3632200D01*
X3111500Y4648200D02*
G01*
X3111500Y3632200D01*
X6819900Y6680200D02*
G01*
X6819900Y5537200D01*
X4787900Y5537200D01*
X4787900Y6680200D01*
X3812413Y518287D02*
G01*
X4112412Y518287D01*
X4112412Y-31699D01*
X3812413Y-31699D01*
X3812413Y518287D01*
X7457313Y340487D02*
G01*
X7757312Y340487D01*
X7757312Y-209499D01*
X7457313Y-209499D01*
X7457313Y340487D01*
X2628900Y863600D02*
G01*
X4114800Y863600D01*
X4114800Y647700D01*
X2628900Y647700D01*
X2628900Y863600D01*
X8998600Y3326899D02*
G01*
X8998600Y2946900D01*
X7968599Y3326899D02*
G01*
X7968599Y2946900D01*
X8998600Y2946900D02*
G01*
X7968599Y2946900D01*
X8998600Y3326899D02*
G01*
X7968599Y3326899D01*
X7632700Y2120900D02*
G01*
X7632700Y2070100D01*
X7607300Y2095500D02*
G01*
X7658100Y2095500D01*
X4392282Y-354215D02*
G01*
X4392282Y4845773D01*
X7182269Y4845773D01*
X7182269Y-354215D01*
X4392282Y-354215D01*
G75*
G01*
X7467600Y1905000D02*
G03*
X7721600Y1905000I127000J101599D01*
G75*
G01*
X7708900Y2120900D02*
G03*
X7473785Y2113991I-114300J-114301D01*
M02*
